<svg xmlns="http://www.w3.org/2000/svg" width="13.646" height="11.416" viewBox="0 0 13.646 11.416">
  <path id="Path_1206" data-name="Path 1206" d="M115.326,13.433h-5.475a.723.723,0,0,0-.912,0h-5.475a.726.726,0,0,1-.732-.662c-.008-.152,0-.3-.008-.594,0-.675,0-2.715,0-2.715,0-.121,0-.233,0-.348a8.7,8.7,0,0,1,.033-1.021.809.809,0,0,1,.238-.561.758.758,0,0,1,.092-.066l.052-.028a.736.736,0,0,1,.107-.042l.017-.006.033-.01a.728.728,0,0,1,.168-.021h2.453V3.06a.742.742,0,0,1,.74-.743h5.475a.744.744,0,0,1,.744.743v4.3h2.45a.746.746,0,0,1,.744.746v4.582A.746.746,0,0,1,115.326,13.433Zm-5.475-5.5a.169.169,0,0,0-.168.174v4.582a.169.169,0,0,0,.168.174h5.475a.173.173,0,0,0,.172-.174V8.105a.173.173,0,0,0-.172-.174h-1.538V9.938a.286.286,0,0,1-.458.228l-.74-.558-.74.558a.284.284,0,0,1-.172.058.286.286,0,0,1-.286-.286V7.931Zm-6.387,0a.165.165,0,0,0-.062.013l-.007,0,0,0a.163.163,0,0,0-.043.03h0l0,0a.154.154,0,0,0-.021.033l0,0a.176.176,0,0,0-.024.086v4.582a.169.169,0,0,0,.168.174h5.475a.173.173,0,0,0,.172-.174V8.105a.173.173,0,0,0-.172-.174H107.4V9.938a.286.286,0,0,1-.457.229l-.741-.559-.743.559a.285.285,0,0,1-.172.057.289.289,0,0,1-.128-.03A.284.284,0,0,1,105,9.938V7.931Zm3.193-5.042a.168.168,0,0,0-.168.171v4.3h2.45a.742.742,0,0,1,.139.014l.027.007h0l.015,0a.745.745,0,0,1,.089.028l.045.02h0a.705.705,0,0,1,.076.041l.041.027.011.007h0l.013.009.014-.01h0l.01-.007.04-.027a.734.734,0,0,1,.076-.042l0,0,.042-.019a.74.74,0,0,1,.088-.028l.015,0h0l.027-.007a.719.719,0,0,1,.139-.014H112.3V3.06a.174.174,0,0,0-.172-.171h-1.539V4.895a.286.286,0,0,1-.286.286.289.289,0,0,1-.172-.057l-.74-.558-.74.558a.289.289,0,0,1-.172.058.286.286,0,0,1-.286-.286V2.889Z" transform="translate(-102.574 -2.167)" stroke="#0b0902" stroke-width="0.3"/>
</svg>
