<svg xmlns="http://www.w3.org/2000/svg" width="8.977" height="10.969" viewBox="0 0 8.977 10.969">
  <path id="noun-notification-4689482" d="M148.612,29.754l-.718-1.082v-.848a3.49,3.49,0,0,0-2.991-3.45v-.538a.5.5,0,1,0-1,0v.538a3.49,3.49,0,0,0-2.991,3.45v.848l-.723,1.082a1.645,1.645,0,0,0,1.371,2.558h.848a1.994,1.994,0,1,0,3.989,0h.848a1.645,1.645,0,0,0,1.645-1.645,1.6,1.6,0,0,0-.279-.912ZM144.4,33.309a1,1,0,0,1-1-1H145.4a1,1,0,0,1-1,1Zm2.842-1.994h-5.684a.648.648,0,0,1-.648-.648.677.677,0,0,1,.11-.349l.8-1.207a.5.5,0,0,0,.085-.289v-1a2.493,2.493,0,1,1,4.986,0v1a.5.5,0,0,0,.085.274l.8,1.222a.648.648,0,0,1-.538,1Z" transform="translate(-139.914 -23.337)"/>
</svg>
