<svg xmlns="http://www.w3.org/2000/svg" width="11.922" height="13.051" viewBox="0 0 11.922 13.051">
  <g id="Group_6" data-name="Group 6" transform="translate(0.602 0.5)">
    <path id="Path_8" data-name="Path 8" d="M1846.326,11.327l-.093-.055a.868.868,0,0,1,0-1.492l.06-.035a1.657,1.657,0,0,0,.646-2.18,1.586,1.586,0,0,0-2.209-.644l-.093.055a.849.849,0,0,1-1.274-.746v-.07a1.635,1.635,0,0,0-1.538-1.657,1.607,1.607,0,0,0-1.655,1.618V6.23a.849.849,0,0,1-1.274.746l-.057-.033a1.614,1.614,0,1,0-1.633,2.783l.093.055a.868.868,0,0,1,0,1.492l-.093.055a1.632,1.632,0,0,0-.584,2.212,1.585,1.585,0,0,0,2.181.593l.093-.055a.849.849,0,0,1,1.274.746v.07a1.635,1.635,0,0,0,1.538,1.657,1.607,1.607,0,0,0,1.655-1.618v-.109a.849.849,0,0,1,1.274-.746l.093.055a1.585,1.585,0,0,0,2.181-.593A1.632,1.632,0,0,0,1846.326,11.327Z" transform="translate(-1836.406 -4.501)" fill="none" stroke="#0b0902" stroke-linecap="round" stroke-linejoin="round" stroke-width="1"/>
    <path id="Path_9" data-name="Path 9" d="M1887.01,59.814a1.321,1.321,0,1,1-1.32-1.313A1.317,1.317,0,0,1,1887.01,59.814Z" transform="translate(-1880.132 -53.622)" fill="none" stroke="#0b0902" stroke-linecap="round" stroke-linejoin="round" stroke-width="1"/>
  </g>
</svg>
